<mxfile host="Electron" modified="2023-06-20T06:52:19.954Z" agent="Mozilla/5.0 (Windows NT 10.0; Win64; x64) AppleWebKit/537.36 (KHTML, like Gecko) draw.io/21.2.8 Chrome/112.0.5615.165 Electron/24.2.0 Safari/537.36" etag="gBhd-2xkQfiFErflp6O5" version="21.2.8" type="device">
  <diagram name="Page-1" id="Sd1HmnsuUNaL-1Gquh-4">
    <mxGraphModel dx="1114" dy="720" grid="1" gridSize="10" guides="1" tooltips="1" connect="1" arrows="1" fold="1" page="1" pageScale="1" pageWidth="850" pageHeight="1100" math="0" shadow="0">
      <root>
        <mxCell id="0" />
        <mxCell id="1" parent="0" />
        <mxCell id="qFes-H1xYbCnaRmwYx3y-1" value="" style="rounded=0;whiteSpace=wrap;html=1;" vertex="1" parent="1">
          <mxGeometry x="20" y="50" width="1080" height="760" as="geometry" />
        </mxCell>
        <mxCell id="qFes-H1xYbCnaRmwYx3y-2" value="Appointments&lt;br&gt;Project" style="ellipse;whiteSpace=wrap;html=1;aspect=fixed;" vertex="1" parent="1">
          <mxGeometry x="720" y="160" width="80" height="80" as="geometry" />
        </mxCell>
        <mxCell id="qFes-H1xYbCnaRmwYx3y-3" value="Practice Provisioning UI&lt;br&gt;&lt;font style=&quot;font-size: 18px;&quot;&gt;💻&lt;/font&gt;" style="ellipse;whiteSpace=wrap;html=1;aspect=fixed;" vertex="1" parent="1">
          <mxGeometry x="870" y="300" width="80" height="80" as="geometry" />
        </mxCell>
        <mxCell id="qFes-H1xYbCnaRmwYx3y-4" value="Practice Staff&lt;br&gt;&lt;font style=&quot;font-size: 18px;&quot;&gt;👩‍⚕️&lt;/font&gt;" style="ellipse;whiteSpace=wrap;html=1;aspect=fixed;" vertex="1" parent="1">
          <mxGeometry x="720" y="470" width="80" height="80" as="geometry" />
        </mxCell>
        <mxCell id="qFes-H1xYbCnaRmwYx3y-5" value="Practice Patient&lt;br&gt;&lt;font style=&quot;font-size: 18px;&quot;&gt;😷&lt;/font&gt;" style="ellipse;whiteSpace=wrap;html=1;aspect=fixed;" vertex="1" parent="1">
          <mxGeometry x="230" y="360" width="80" height="80" as="geometry" />
        </mxCell>
        <mxCell id="qFes-H1xYbCnaRmwYx3y-6" value="Precheck" style="ellipse;whiteSpace=wrap;html=1;aspect=fixed;" vertex="1" parent="1">
          <mxGeometry x="230" y="160" width="80" height="80" as="geometry" />
        </mxCell>
        <mxCell id="qFes-H1xYbCnaRmwYx3y-7" value="Confirmation&lt;br&gt;Email" style="ellipse;whiteSpace=wrap;html=1;aspect=fixed;" vertex="1" parent="1">
          <mxGeometry x="300" y="260" width="80" height="80" as="geometry" />
        </mxCell>
        <mxCell id="qFes-H1xYbCnaRmwYx3y-8" value="Reminder&lt;br&gt;Email" style="ellipse;whiteSpace=wrap;html=1;aspect=fixed;" vertex="1" parent="1">
          <mxGeometry x="100" y="260" width="80" height="80" as="geometry" />
        </mxCell>
        <mxCell id="qFes-H1xYbCnaRmwYx3y-9" value="Appointments Dashboard&lt;br&gt;&lt;font style=&quot;font-size: 18px;&quot;&gt;🗓&lt;/font&gt;" style="ellipse;whiteSpace=wrap;html=1;aspect=fixed;" vertex="1" parent="1">
          <mxGeometry x="570" y="300" width="80" height="80" as="geometry" />
        </mxCell>
        <mxCell id="qFes-H1xYbCnaRmwYx3y-10" value="" style="endArrow=classic;html=1;rounded=0;exitX=0;exitY=1;exitDx=0;exitDy=0;entryX=1;entryY=0;entryDx=0;entryDy=0;" edge="1" parent="1" source="qFes-H1xYbCnaRmwYx3y-2" target="qFes-H1xYbCnaRmwYx3y-9">
          <mxGeometry width="50" height="50" relative="1" as="geometry">
            <mxPoint x="670" y="349.9999999999999" as="sourcePoint" />
            <mxPoint x="720" y="299.9999999999999" as="targetPoint" />
          </mxGeometry>
        </mxCell>
        <mxCell id="qFes-H1xYbCnaRmwYx3y-11" value="" style="endArrow=classic;html=1;rounded=0;exitX=1;exitY=1;exitDx=0;exitDy=0;entryX=0;entryY=0;entryDx=0;entryDy=0;" edge="1" parent="1" source="qFes-H1xYbCnaRmwYx3y-2" target="qFes-H1xYbCnaRmwYx3y-3">
          <mxGeometry width="50" height="50" relative="1" as="geometry">
            <mxPoint x="760" y="409.9999999999999" as="sourcePoint" />
            <mxPoint x="810" y="359.9999999999999" as="targetPoint" />
          </mxGeometry>
        </mxCell>
      </root>
    </mxGraphModel>
  </diagram>
</mxfile>
